<?xml version="1.0" encoding="UTF-8"?>
<svg width="271px" height="271px" viewBox="0 0 271 271" version="1.1" xmlns="http://www.w3.org/2000/svg" xmlns:xlink="http://www.w3.org/1999/xlink">
    <title>info</title>
    <g id="Page-1" stroke="none" stroke-width="1" fill="none" fill-rule="evenodd">
        <g id="info" fill="#000000" fill-rule="nonzero">
            <path d="M10.588584,271 C7.89075781,271 5.2342168,269.96893 3.218125,268.014236 C0.124384766,265.01524 -0.842640625,260.440527 0.772244141,256.446453 L24.8081445,196.988947 C8.55449609,175.860475 0,151.074561 0,124.914062 C0,91.369873 14.2142676,59.8862363 40.0254297,36.2626582 C65.5751191,12.8783223 99.4824062,0 135.5,0 C171.517594,0 205.424881,12.8783223 230.97457,36.2626582 C256.785732,59.8862363 271,91.369873 271,124.914062 C271,148.969547 263.568672,172.326889 249.509488,192.460283 C246.161686,197.254125 239.562941,198.425988 234.7691,195.078715 C229.975258,191.731441 228.803395,185.132168 232.150668,180.338326 C243.715805,163.777686 249.828125,144.611846 249.828125,124.914062 C249.828125,67.7103027 198.540846,21.171875 135.5,21.171875 C72.4591543,21.171875 21.171875,67.7103027 21.171875,124.914062 C21.171875,148.088268 29.4167324,170.010156 45.014582,188.309537 C47.5732031,191.31118 48.2512324,195.487332 46.772377,199.144244 L30.1704512,240.211859 L78.5190742,218.899191 C81.1989043,217.71833 84.2492422,217.699275 86.9433633,218.848908 C102.197699,225.356613 118.533918,228.65625 135.5,228.65625 C155.02682,228.65625 174.296932,224.111178 191.227551,215.51275 C196.441125,212.866266 202.812271,214.945344 205.459814,220.15733 C208.106828,225.370375 206.02775,231.742051 200.815234,234.389594 C180.928492,244.489637 158.342865,249.828125 135.5,249.828125 C117.249844,249.828125 99.5951465,246.551248 82.9535234,240.082182 L14.8563047,270.100725 C13.4833086,270.705711 12.0298594,271 10.588584,271 Z M146.085938,172.021484 L146.085938,114.857422 C146.085938,109.010809 141.346613,104.271484 135.5,104.271484 C129.653387,104.271484 124.914062,109.010809 124.914062,114.857422 L124.914062,172.021484 C124.914062,177.868098 129.653387,182.607422 135.5,182.607422 C141.346613,182.607422 146.085938,177.868098 146.085938,172.021484 Z M135.5,67.75 C129.653387,67.75 124.914062,72.4893242 124.914062,78.3359375 L124.914062,78.3359375 C124.914062,84.1825508 129.653387,88.921875 135.5,88.921875 C141.346613,88.921875 146.085938,84.1825508 146.085938,78.3359375 L146.085938,78.3359375 C146.085938,72.4893242 141.346613,67.75 135.5,67.75 Z" id="Shape"></path>
        </g>
    </g>
</svg>