<?xml version="1.0" encoding="UTF-8"?>
<svg width="288px" height="384px" viewBox="0 0 288 384" version="1.1" xmlns="http://www.w3.org/2000/svg" xmlns:xlink="http://www.w3.org/1999/xlink">
    <title>location</title>
    <g id="Page-1" stroke="none" stroke-width="1" fill="none" fill-rule="evenodd">
        <g id="location" fill="#000000" fill-rule="nonzero">
            <path d="M144,0 C64.6,0 0,64.6 0,144 C0,218.344 118.232,362.104 131.72,378.256 C134.76,381.896 139.256,384 144,384 C148.744,384 153.24,381.896 156.28,378.256 C169.768,362.104 288,218.344 288,144 C288,64.6 223.4,0 144,0 Z M144,342.624 C104.176,292.48 32,191.712 32,144 C32,82.24 82.24,32 144,32 C205.76,32 256,82.24 256,144 C256,191.712 183.824,292.48 144,342.624 Z" id="Shape"></path>
            <path d="M144,64 C99.888,64 64,99.888 64,144 C64,188.112 99.888,224 144,224 C165.744,224 186.08,215.424 201.264,199.856 C207.432,193.528 207.304,183.4 200.984,177.232 C194.656,171.064 184.528,171.184 178.36,177.512 C169.248,186.856 157.048,192 144,192 C117.528,192 96,170.472 96,144 C96,117.528 117.528,96 144,96 C170.472,96 192,117.528 192,144 C192,152.832 199.168,160 208,160 C216.832,160 224,152.832 224,144 C224,99.888 188.112,64 144,64 Z" id="Path"></path>
        </g>
    </g>
</svg>