<?xml version="1.0" encoding="utf-8"?>
<!-- Generator: Adobe Illustrator 22.1.0, SVG Export Plug-In . SVG Version: 6.00 Build 0)  -->
<svg version="1.1" id="Laag_1" xmlns="http://www.w3.org/2000/svg" xmlns:xlink="http://www.w3.org/1999/xlink" x="0px" y="0px"
	 viewBox="0 0 155.9 240.9" style="enable-background:new 0 0 155.9 240.9;" xml:space="preserve">
<style type="text/css">
	.st0{fill:#FEFEFE;}
	.st1{fill:#1D1D1B;}
</style>
<g>
	<path class="st0" d="M134.7,127.3c-0.1,0-0.1-0.1-0.1-0.1c-0.2-0.6-0.9-0.9-1.6-0.8c-0.4,0.1-0.7,0.3-1,0.6
		c-0.2,0.2-0.3,0.4-0.5,0.6c0,0.1-0.1,0.1-0.2,0.1c-0.1,0-0.1-0.1-0.1-0.2c0-0.3-0.1-0.6-0.4-0.9c-0.6-0.5-1.5-0.3-1.9,0.3
		c-0.1,0.1-0.1,0.2-0.1,0.4c0,2.9,0,5.8,0,8.6c0,0.5,0.4,1,1,1.1c0.6,0.1,1.1-0.2,1.3-0.8c0.1-0.2,0.1-0.4,0.1-0.6
		c0-1.4,0-2.8,0-4.2c0-1.1,0.5-1.8,1.3-2.4c0.3-0.2,0.6-0.3,0.9-0.4c0.2-0.1,0.3-0.1,0.5-0.2c0.2-0.1,0.4-0.3,0.5-0.5
		c0-0.1,0.1-0.2,0.2-0.2"/>
	<path d="M134.7,127.9c-0.2,0.5-0.7,0.7-1.2,0.9c-0.6,0.2-1.2,0.6-1.6,1.1c-0.3,0.4-0.5,0.9-0.5,1.5c0,1.5,0,3,0,4.5
		c0,0.6-0.4,1.1-0.9,1.2c-0.8,0.2-1.5-0.4-1.5-1.2c0-2.8,0-5.6,0-8.4c0-0.7,0.6-1.1,1.1-1.2c0.3,0,0.5,0,0.8,0.1
		c0.4,0.2,0.6,0.5,0.6,0.9c0,0.1,0,0.2,0,0.3c0.1,0,0.1-0.1,0.1-0.1c0.2-0.3,0.5-0.7,0.8-0.9c0.6-0.5,1.5-0.5,2,0
		c0.2,0.2,0.3,0.4,0.4,0.6C134.7,127.5,134.7,127.7,134.7,127.9z"/>
	<path class="st1" d="M72.6,99.2c0,0.3,0,0.6,0,0.9c0,0.1,0,0.2-0.2,0.2c-3.2,0.1-6.3,0.5-9.4,1.1c-2.1,0.5-4.2,1.1-6.1,2
		c-1.1,0.6-2.1,1.3-3,2.2c-4.4,3.8-8.8,7.7-13.2,11.6c-0.4,0.4-0.8,0.6-1.3,0.7c-2.3,0.6-4.6,1.4-6.8,2.4c-0.9,0.4-1.8,0.9-2.6,1.6
		c-0.8,0.6-1.4,1.4-1.9,2.2c-2,3-3.4,6.3-4.2,9.8c-0.3,1.3-0.4,2.6-0.3,4c0,0.3,0.1,0.7,0.2,1c0,0.1,0.1,0.2,0.2,0.2
		c0.7,0.3,1.5,0.5,2.3,0.7c1.7,0.4,3.5,0.6,5.2,0.7c0.8,0.1,1.6,0.1,2.4,0.2c0.1,0,0.2,0,0.1,0.2c-0.1,0.6-0.1,1.2-0.1,1.9
		c0,0.1-0.1,0.2-0.2,0.1c-1-0.1-2-0.2-3-0.3c-1.3-0.1-2.7-0.3-4-0.6c-1.2-0.2-2.4-0.5-3.5-1c-0.5-0.2-0.9-0.4-1.2-0.8
		c-0.2-0.3-0.3-0.6-0.4-0.9c0-0.3-0.1-0.7-0.2-1c-0.2-1.2-0.1-2.4,0.1-3.6c0.7-4.5,2.5-8.6,5.1-12.4c1.1-1.7,2.7-2.9,4.5-3.8
		c2.4-1.2,4.9-2.1,7.5-2.8c0.3-0.1,0.6-0.2,0.9-0.5c4.3-3.8,8.6-7.7,12.9-11.4c1.2-1.1,2.5-2,4-2.7c1.7-0.8,3.5-1.4,5.3-1.8
		c2.4-0.6,4.9-1,7.4-1.2c1.1-0.1,2.2-0.2,3.3-0.2c0.1,0,0.2,0,0.2,0.2C72.6,98.6,72.6,98.9,72.6,99.2C72.6,99.2,72.6,99.2,72.6,99.2
		z"/>
	<path d="M118.1,116.2c0,1.1,0,2.3,0,3.4c0,0.7-0.5,1.3-1.2,1.3c-0.7,0-1.3-0.5-1.3-1.3c0-2.3,0-4.6,0-6.9c0-0.2,0-0.3-0.2-0.2
		c-0.1,0-0.3,0-0.4,0c-0.6,0-1.1-0.5-1.1-1.1c0-0.6,0.5-1.1,1.1-1.1c0.2,0,0.5,0.1,0.6,0c0.1-0.1,0-0.4,0-0.6c0-0.6,0-1.2,0-1.8
		c0.2-1.2,1.2-2.3,2.6-2.3c0.4,0,0.7,0,1.1,0c0.8,0.2,1.2,1,0.8,1.7c-0.2,0.3-0.5,0.5-0.9,0.5c-0.2,0-0.4,0-0.6,0
		c-0.3,0.1-0.4,0.2-0.5,0.5c-0.1,0.6,0,1.3,0,1.9c0,0.1,0.1,0.1,0.1,0.1c0.3,0,0.6,0,0.9,0c0.2,0,0.4,0,0.6,0.2c0.1,0,0.1,0.1,0.2,0
		c0.3-0.2,0.7-0.2,1.1-0.2c0.2,0,0.3-0.1,0.3-0.3c0-0.6,0-1.1,0-1.7c0-0.6,0.4-1.1,1-1.2c0.6-0.1,1.2,0.2,1.4,0.8
		c0.1,0.2,0.1,0.3,0.1,0.5c0,0.6,0,1.2,0,1.7c0,0.1,0,0.2,0.2,0.2c0.3,0,0.5,0,0.8,0c0.6,0,1.1,0.5,1.1,1.1c0,0.6-0.5,1.1-1.1,1.1
		c-0.2,0-0.5,0-0.7,0c-0.2,0-0.2,0.1-0.2,0.2c0,2.3,0,4.6,0,6.9c0,0.3-0.1,0.6-0.2,0.8c-0.3,0.5-0.9,0.6-1.4,0.5
		c-0.5-0.2-0.8-0.6-0.9-1.2c0-1.3,0-2.5,0-3.8c0-1.1,0-2.1,0-3.2c0-0.1,0-0.2-0.2-0.2c-0.4,0-0.8,0.1-1.1-0.2c0,0-0.1,0-0.1,0
		c-0.2,0.2-0.5,0.2-0.8,0.2c-0.2,0-0.5,0-0.7,0c-0.2,0-0.2,0.1-0.2,0.2C118.1,113.9,118.1,115.1,118.1,116.2z"/>
	<path d="M77.8,127.8c0.2-0.3,0.4-0.5,0.6-0.7c0.5-0.5,1-0.8,1.8-0.6c0.2,0,0.4,0.1,0.6,0.3c0,0,0.1,0.1,0.1,0.1
		c0.3-0.3,0.7-0.2,1.1-0.2c0.2,0,0.2,0,0.2-0.2c0-0.6,0-1.2,0-1.7c0-0.5,0.2-0.9,0.7-1.1c0.4-0.2,0.9-0.2,1.3,0.1
		c0.3,0.2,0.5,0.6,0.5,1c0,0.6,0,1.2,0,1.8c0,0.2,0.1,0.2,0.2,0.2c0.2,0,0.5,0,0.7,0c0.6,0,1.1,0.5,1.1,1.1c0,0.6-0.5,1.1-1.1,1.1
		c-0.2,0-0.5,0-0.7,0c-0.2,0-0.2,0-0.2,0.2c0,1.9,0,3.8,0,5.7c0,0.5,0,0.9,0,1.4c0,0.5-0.4,1-1,1.1c-0.5,0.1-1.1-0.1-1.3-0.6
		c-0.1-0.2-0.2-0.5-0.2-0.7c0-2.3,0-4.6,0-6.9c0-0.2,0-0.2-0.2-0.2c-0.4,0-0.8,0-1.2-0.3c0,0-0.1,0-0.1,0c-0.3,0.2-0.6,0.3-0.9,0.4
		c-0.6,0.2-1.1,0.6-1.5,1.1c-0.3,0.4-0.5,0.9-0.5,1.4c0,1.5,0,3,0,4.5c0,0.6-0.4,1.1-0.9,1.2c-0.8,0.2-1.6-0.4-1.6-1.2
		c0-2.8,0-5.6,0-8.4c0-0.7,0.6-1.1,1.1-1.2c0.3,0,0.5,0,0.8,0.1c0.4,0.2,0.6,0.5,0.6,0.9C77.8,127.5,77.8,127.6,77.8,127.8z"/>
	<path d="M62.4,130.6c0,0.9,0,1.9,0,2.8c0,2-1.3,3.1-2.8,3.5c-1.4,0.4-2.8,0.3-4.2-0.3c-1.3-0.6-1.9-1.7-2-3c-0.1-1.4,0-2.7,0-4.1
		c0-0.6,0-1.2,0-1.8c0-0.9,0.8-1.5,1.6-1.3c0.5,0.1,0.9,0.6,0.9,1.2c0,0.4,0,0.8,0,1.1c0,1.4,0,2.7,0,4.1c0,0.2,0,0.4,0.1,0.7
		c0.2,0.9,0.8,1.4,1.7,1.5c0.3,0,0.5,0,0.8-0.1c0.8-0.2,1.3-0.7,1.4-1.5c0-0.2,0-0.4,0-0.6c0-1.7,0-3.4,0-5.1c0-0.6,0.3-1.1,0.9-1.3
		c0.8-0.2,1.6,0.4,1.6,1.2C62.4,128.6,62.4,129.6,62.4,130.6C62.4,130.6,62.4,130.6,62.4,130.6z"/>
	<path d="M73.3,130.6c0,0.9,0,1.9,0,2.8c0,2-1.3,3.1-2.8,3.5c-1.4,0.4-2.8,0.3-4.2-0.3c-1.3-0.6-1.9-1.7-2-3c-0.1-1.4,0-2.8,0-4.1
		c0-0.6,0-1.2,0-1.8c0-0.9,0.8-1.5,1.6-1.3c0.5,0.1,0.9,0.6,0.9,1.2c0,0.4,0,0.9,0,1.3c0,1.3,0,2.6,0,4c0,0.2,0,0.4,0.1,0.7
		c0.2,1,0.8,1.5,1.8,1.5c0.3,0,0.5,0,0.8-0.1c0.8-0.2,1.2-0.7,1.4-1.5c0-0.2,0-0.4,0-0.6c0-1.7,0-3.4,0-5.1c0-0.6,0.3-1.1,0.9-1.3
		c0.8-0.2,1.6,0.4,1.6,1.2C73.3,128.6,73.3,129.6,73.3,130.6C73.3,130.6,73.3,130.6,73.3,130.6z"/>
	<path d="M104.9,130.6c0,0.9,0,1.9,0,2.8c0,2-1.3,3.1-2.8,3.5c-1.4,0.4-2.8,0.3-4.2-0.3c-1.3-0.6-1.9-1.7-2-3c-0.1-1.3,0-2.7,0-4
		c0-0.6,0-1.3,0-1.9c0-0.9,0.8-1.5,1.6-1.3c0.5,0.1,0.9,0.6,0.9,1.1c0,0.3,0,0.6,0,1c0,1.4,0,2.9,0,4.3c0,0.3,0,0.5,0.1,0.8
		c0.2,0.9,0.8,1.3,1.8,1.4c0.3,0,0.5,0,0.8-0.1c0.8-0.2,1.3-0.7,1.4-1.5c0-0.2,0-0.4,0-0.6c0-1.7,0-3.4,0-5.1c0-0.6,0.3-1.1,0.9-1.3
		c0.8-0.2,1.6,0.4,1.6,1.2C104.9,128.6,104.9,129.6,104.9,130.6C104.9,130.6,104.9,130.6,104.9,130.6z"/>
	<path d="M90.6,126.4c1,0,1.9,0.2,2.7,0.7c0.3,0.2,0.6,0.4,0.8,0.7c0.3,0.6,0.1,1.4-0.6,1.5c-0.3,0.1-0.6,0-0.9-0.1
		c-0.4-0.2-0.8-0.4-1.2-0.5c-0.4-0.1-0.8-0.2-1.3-0.1c-0.3,0.1-0.5,0.2-0.7,0.4c-0.2,0.4-0.2,0.7,0.2,1c0.5,0.3,1,0.5,1.6,0.8
		c0.6,0.2,1.3,0.5,1.9,0.9c0.7,0.4,1.2,1,1.4,1.8c0.2,1.2-0.3,2.4-1.4,3.1c-0.6,0.4-1.3,0.6-2.1,0.7c-1.3,0.1-2.4-0.2-3.5-0.8
		c-0.3-0.2-0.6-0.4-0.8-0.7c-0.4-0.6-0.1-1.5,0.6-1.7c0.2-0.1,0.5,0,0.7,0.1c0.4,0.2,0.7,0.4,1.1,0.6c0.6,0.3,1.3,0.5,2,0.3
		c0.2,0,0.3-0.1,0.5-0.2c0.5-0.4,0.6-1,0-1.4c-0.3-0.2-0.6-0.4-0.9-0.5c-0.8-0.3-1.6-0.6-2.4-1c-1.6-0.8-2-2.7-0.9-4.1
		c0.6-0.8,1.5-1.2,2.5-1.3C90.2,126.4,90.4,126.3,90.6,126.4z"/>
	<path d="M61.8,117.2c0.4-1.2,0.8-2.4,1.2-3.6c0.3-0.8,0.5-1.6,0.8-2.4c0.1-0.4,0.4-0.8,0.8-0.9c1-0.3,1.8,0.5,1.6,1.5
		c-0.1,0.6-0.4,1.1-0.6,1.6c-0.8,2.2-1.7,4.4-2.5,6.6c-0.3,0.8-0.9,1.2-1.7,1c-0.5-0.1-0.8-0.5-1-0.9c-0.4-1.1-0.8-2.1-1.2-3.2
		c-0.6-1.6-1.2-3.2-1.8-4.8c-0.2-0.6-0.1-1.2,0.3-1.5c0.7-0.6,1.7-0.4,2,0.5c0.4,1.3,0.9,2.6,1.3,3.9
		C61.3,115.6,61.6,116.4,61.8,117.2z"/>
	<path d="M106.9,111.5c0.3-0.4,0.5-0.8,0.9-1c0.6-0.5,1.5-0.5,2,0c0.6,0.6,0.5,1.5-0.3,1.9c-0.3,0.2-0.7,0.3-1,0.5
		c-0.8,0.4-1.4,1-1.6,1.9c0,0.2,0,0.3,0,0.5c0,1.5,0,3,0,4.5c0,0.6-0.4,1.1-1,1.3c-0.8,0.2-1.5-0.4-1.5-1.2c0-2.8,0-5.6,0-8.4
		c0-0.7,0.6-1.1,1.1-1.2c0.2,0,0.5,0,0.7,0.1c0.4,0.2,0.7,0.5,0.7,1C106.9,111.3,106.8,111.4,106.9,111.5z"/>
	<path d="M113.1,115.5c0,1.4,0,2.8,0,4.1c0,0.6-0.4,1.1-0.9,1.3c-0.8,0.2-1.5-0.4-1.5-1.2c0-2.8,0-5.5,0-8.3c0-0.7,0.5-1.2,1.2-1.3
		c0.7,0,1.3,0.5,1.3,1.2C113.1,112.8,113.1,114.1,113.1,115.5z"/>
	<path d="M113.3,107.6c0,0.8-0.6,1.5-1.4,1.5c-0.9,0-1.5-0.6-1.5-1.5c0-0.8,0.6-1.5,1.5-1.5C112.7,106.2,113.3,106.8,113.3,107.6z"
		/>
	<path d="M67.6,121.1c-0.8,0-1.5-0.6-1.5-1.4c0-0.8,0.6-1.4,1.4-1.4c0.8,0,1.4,0.6,1.4,1.5C69,120.5,68.4,121.1,67.6,121.1z"/>
	<path d="M82.9,121.1c-0.8,0-1.4-0.6-1.4-1.4c0-0.8,0.7-1.4,1.5-1.4c0.8,0,1.4,0.6,1.4,1.5C84.3,120.5,83.7,121.1,82.9,121.1z"/>
	<path d="M52,131.9c-0.3-1.3-1.1-2.2-2.4-2.5c-0.1,0-0.2,0-0.3-0.1c0.1-0.1,0.2-0.1,0.3-0.2c0.4-0.2,0.7-0.5,0.9-0.8
		c0.7-1.2,0.7-2.5-0.1-3.7c-0.8-1.2-1.9-1.6-3.3-1.7c-1.2,0-2.3,0-3.5,0c-0.2,0-0.3,0-0.4,0.1c-0.6,0.2-0.8,0.6-0.8,1.4
		c0,3.7,0,7.4,0,11.1c0,0,0,0.1,0,0.1c0,0.8,0.6,1.4,1.4,1.4c1.4,0,2.8,0,4.3,0c0.8,0,1.6-0.2,2.3-0.6
		C51.8,135.3,52.4,133.6,52,131.9z M45,125.3c0.7,0,1.3-0.1,2,0.1c1,0.2,1.7,1.3,1.2,2.2c-0.3,0.7-0.9,1-1.6,1c-0.5,0-1.1,0-1.6,0
		c-0.1,0-0.1-0.1-0.1-0.2c0-0.5,0-1,0-1.5s0-1,0-1.5C44.9,125.4,44.9,125.3,45,125.3z M49.1,133.8c-0.4,0.5-0.9,0.8-1.6,0.9
		c-0.8,0-1.6,0-2.4,0c-0.1,0-0.2-0.1-0.2-0.2c0-0.6,0-1.2,0-1.8c0-0.6,0-1.2,0-1.8c0-0.1,0-0.2,0.1-0.2c0.8,0,1.7,0,2.5,0
		c0.8,0,1.3,0.4,1.7,1.1C49.6,132.6,49.5,133.2,49.1,133.8z"/>
	<path d="M102.7,112c-0.6-3.1-3.1-5.2-6.3-5.2c-1.2,0-2.4,0-3.7,0c-0.8,0-1.3,0.5-1.3,1.3c0,1.9,0,3.8,0,5.7c0,1.9,0,3.8,0,5.7
		c0,0.8,0.6,1.3,1.3,1.3c1.2,0,2.4,0,3.5,0c0.4,0,0.8,0,1.1-0.1c2.2-0.3,3.7-1.5,4.7-3.5C102.9,115.6,103,113.8,102.7,112z
		 M99.6,116.2c-0.7,1.5-1.9,2.2-3.6,2.2c-0.6,0-1.2,0-1.8,0c-0.2,0-0.2,0-0.2-0.2c0-1.5,0-3,0-4.5c0-1.5,0-3,0-4.5
		c0-0.2,0-0.2,0.2-0.2c0.8,0,1.6,0,2.3,0c1.5,0.1,2.5,0.9,3.1,2.3C100.3,113,100.3,114.6,99.6,116.2z"/>
	<path d="M79.9,106.9c0-0.9-0.8-1.5-1.6-1.3c-0.6,0.2-0.9,0.7-0.9,1.3c0,1.2,0,2.5,0,3.7c0,0.2,0,0.5,0,0.7
		c-0.2-0.2-0.3-0.3-0.5-0.4c-0.4-0.3-0.7-0.6-1.2-0.7c-1.8-0.3-3.3,0.2-4.4,1.7c-1.5,1.9-1.6,4.1-0.6,6.3c0.8,1.8,2.2,2.9,4.3,2.8
		c0.8,0,1.4-0.2,2-0.8c0.2-0.2,0.3-0.4,0.5-0.5c0.1,0.6,0.1,0.7,0.3,0.9c0.4,0.4,0.9,0.5,1.4,0.3c0.5-0.2,0.8-0.6,0.8-1.2
		c0-3.4,0-6.9,0-10.3C79.9,108.5,79.9,107.7,79.9,106.9z M77,117.4c-0.7,1.4-2.5,1.6-3.6,0.5c-0.4-0.4-0.6-1-0.7-1.6
		c-0.1-0.9-0.1-1.8,0.3-2.6c0.6-1.1,1.8-1.6,2.9-1.1c0.6,0.3,1,0.8,1.2,1.4c0.2,0.5,0.3,1.1,0.3,1.6C77.4,116.3,77.3,116.9,77,117.4
		z"/>
	<path d="M116.1,129.1c-0.7-1.5-1.8-2.5-3.6-2.8c-1.1-0.1-2.1,0.1-2.9,1c-0.1,0.1-0.2,0.2-0.4,0.4c0-0.2,0-0.3,0-0.5
		c-0.2-0.6-0.8-1-1.5-0.8c-0.6,0.1-0.9,0.5-0.9,1.1c0,4.2,0,8.4,0,12.7c0,0.2,0,0.3,0.1,0.5c0.2,0.5,0.8,0.9,1.4,0.7
		c0.6-0.1,1-0.6,1-1.2c0-0.9,0-1.9,0-2.8c0-0.4,0-0.8,0-1.2c0.2,0.1,0.3,0.3,0.4,0.4c0.3,0.3,0.7,0.5,1.1,0.6c1.9,0.4,3.7-0.1,4.8-2
		C116.9,133.2,117,131.2,116.1,129.1z M113.6,133.8c-0.8,1.4-2.5,1.3-3.4,0.6c-0.6-0.5-0.9-1.2-1-1.9c0-0.2-0.1-0.4,0-0.7
		c0-0.6,0.1-1.2,0.3-1.8c0.4-0.8,1-1.3,2-1.4c1,0,1.7,0.4,2.2,1.3C114.3,131.2,114.3,132.6,113.6,133.8z"/>
	<path d="M125.9,133.9c-0.2,0.1-0.4,0.2-0.6,0.4c-0.7,0.4-1.4,0.7-2.2,0.6c-1-0.1-1.9-0.5-2.3-1.5c-0.1-0.2-0.2-0.5-0.3-0.7
		c-0.1-0.1,0-0.2,0.1-0.2c1,0,2,0,3,0c1,0,2,0,3,0c0.7,0,1-0.3,1-1.1c0-1-0.3-1.8-0.7-2.7c-1.1-2-2.9-2.8-5-2.4
		c-1.5,0.2-2.6,1.1-3.4,2.4c-0.7,1.3-0.9,2.6-0.6,4c0.3,1.9,1.4,3.2,3.2,3.9c1.5,0.6,3.1,0.5,4.6-0.2c0.5-0.2,1-0.5,1.4-0.9
		c0.4-0.3,0.5-0.7,0.4-1.2C127.2,134,126.5,133.7,125.9,133.9z M120.4,130.8c0.1-0.5,0.2-1,0.5-1.4c0.8-1.3,2.8-1.3,3.6,0
		c0.3,0.5,0.4,1,0.5,1.5c0,0-0.1,0-0.1,0c-1.5,0-2.9,0-4.4,0C120.4,130.9,120.4,130.9,120.4,130.8z"/>
</g>
</svg>
