<?xml version="1.0" encoding="utf-8"?>
<!-- Generator: Adobe Illustrator 22.1.0, SVG Export Plug-In . SVG Version: 6.00 Build 0)  -->
<svg version="1.1" id="Laag_1" xmlns="http://www.w3.org/2000/svg" xmlns:xlink="http://www.w3.org/1999/xlink" x="0px" y="0px"
	 viewBox="0 0 155.9 240.9" style="enable-background:new 0 0 155.9 240.9;" xml:space="preserve">
<style type="text/css">
	.st0{fill:#1D1D1B;}
</style>
<g>
	<path class="st0" d="M123.6,81c0,0.5,0,1.1,0,1.6c0,0.2,0,0.4-0.4,0.4c-5.7,0.2-11.2,0.9-16.7,2c-3.7,0.9-7.5,2-10.8,3.6
		c-2,1.1-3.7,2.3-5.3,3.9c-7.8,6.8-15.6,13.7-23.5,20.6c-0.7,0.7-1.4,1.1-2.3,1.2c-4.1,1.1-8.2,2.5-12.1,4.3
		c-1.6,0.7-3.2,1.6-4.6,2.8c-1.4,1.1-2.5,2.5-3.4,3.9c-3.6,5.3-6,11.2-7.5,17.4c-0.5,2.3-0.7,4.6-0.5,7.1c0,0.5,0.2,1.2,0.4,1.8
		c0,0.2,0.2,0.4,0.4,0.4c1.2,0.5,2.7,0.9,4.1,1.2c3,0.7,6.2,1.1,9.2,1.2c1.4,0.2,2.8,0.2,4.3,0.4c0.2,0,0.4,0,0.2,0.4
		c-0.2,1.1-0.2,2.1-0.2,3.4c0,0.2-0.2,0.4-0.4,0.2c-1.8-0.2-3.6-0.4-5.3-0.5c-2.3-0.2-4.8-0.5-7.1-1.1c-2.1-0.4-4.3-0.9-6.2-1.8
		c-0.9-0.4-1.6-0.7-2.1-1.4c-0.4-0.5-0.5-1.1-0.7-1.6c0-0.5-0.2-1.2-0.4-1.8c-0.4-2.1-0.2-4.3,0.2-6.4c1.2-8,4.4-15.3,9.1-22
		c2-3,4.8-5.2,8-6.8c4.3-2.1,8.7-3.7,13.3-5c0.5-0.2,1.1-0.4,1.6-0.9c7.6-6.8,15.3-13.7,22.9-20.3c2.1-2,4.4-3.6,7.1-4.8
		c3-1.4,6.2-2.5,9.4-3.2c4.3-1.1,8.7-1.8,13.2-2.1c2-0.2,3.9-0.4,5.9-0.4c0.2,0,0.4,0,0.4,0.4C123.6,80,123.6,80.5,123.6,81
		L123.6,81z"/>
</g>
</svg>
