<?xml version="1.0" encoding="UTF-8"?>
<svg width="368px" height="368px" viewBox="0 0 368 368" version="1.1" xmlns="http://www.w3.org/2000/svg" xmlns:xlink="http://www.w3.org/1999/xlink">
    <title>sad</title>
    <g id="Page-1" stroke="none" stroke-width="1" fill="none" fill-rule="evenodd">
        <g id="sad" fill="#000000" fill-rule="nonzero">
            <path d="M184,224 C154.176,224 125.768,236.632 106.04,258.664 C103.096,261.96 103.376,267.008 106.664,269.96 C108.184,271.328 110.096,272.000053 112,272.000053 C114.192,272.000053 116.384,271.104 117.96,269.336 C134.656,250.688 158.728,240 184,240 C209.28,240 233.352,250.688 250.04,269.336 C252.984,272.632 258.048,272.904 261.336,269.96 C264.624,267.016 264.904,261.96 261.96,258.664 C242.24,236.64 213.832,224 184,224 Z" id="Path"></path>
            <path d="M184,0 C82.536,0 0,82.544 0,184 C0,285.456 82.536,368 184,368 C285.464,368 368,285.456 368,184 C368,82.544 285.464,0 184,0 Z M184,352 C91.368,352 16,276.64 16,184 C16,91.36 91.368,16 184,16 C276.632,16 352,91.36 352,184 C352,276.64 276.632,352 184,352 Z" id="Shape"></path>
            <path d="M280,128 C275.576,128 272,131.584 272,136 C272,149.232 261.232,160 248,160 C234.768,160 224,149.232 224,136 C224,131.584 220.424,128 216,128 C211.576,128 208,131.584 208,136 C208,158.056 225.944,176 248,176 C270.056,176 288,158.056 288,136 C288,131.584 284.424,128 280,128 Z" id="Path"></path>
            <path d="M160,136 C160,131.584 156.424,128 152,128 C147.576,128 144,131.584 144,136 C144,149.232 133.232,160 120,160 C106.768,160 96,149.232 96,136 C96,131.584 92.424,128 88,128 C83.576,128 80,131.584 80,136 C80,158.056 97.944,176 120,176 C142.056,176 160,158.056 160,136 Z" id="Path"></path>
        </g>
    </g>
</svg>