<?xml version="1.0" encoding="UTF-8"?>
<svg width="339px" height="310px" viewBox="0 0 339 310" version="1.1" xmlns="http://www.w3.org/2000/svg" xmlns:xlink="http://www.w3.org/1999/xlink">
    <title>shopping-cart</title>
    <g id="Page-1" stroke="none" stroke-width="1" fill="none" fill-rule="evenodd">
        <g id="shopping-cart" fill="#000000" fill-rule="nonzero">
            <path d="M325.071387,56.4415673 L60.0150355,56.4415673 L56.0750696,12.648917 C55.4306733,5.48739297 49.4149824,0 42.208617,0 L13.9221411,0 C6.23314146,0 0,6.21895717 0,13.8904595 C0,21.5619619 6.23314146,27.7809191 13.9221411,27.7809191 L29.4804653,27.7809191 C37.9829157,122.290283 16.0084734,-121.981386 45.4929164,205.76996 C46.6292283,218.59813 53.5763767,232.518355 65.5441144,241.977097 C43.9667846,269.469623 63.6818623,310 98.7809059,310 C127.912655,310 148.459746,281.011272 138.469615,253.555787 L214.667482,253.555787 C204.689948,280.976216 225.192621,310 254.356192,310 C277.630034,310 296.564809,291.108314 296.564809,267.887434 C296.564809,244.666554 277.630034,225.774868 254.356192,225.774868 L98.8750461,225.774868 C88.2995225,225.774868 79.0837281,219.409069 75.1059735,210.13421 L297.600351,197.087762 C303.674382,196.731901 308.813641,192.480098 310.290051,186.590543 L338.578516,73.700794 C340.771585,64.9471586 334.13006,56.4415673 325.071387,56.4415673 Z M98.7809059,282.219081 C90.8611965,282.219081 84.417234,275.789783 84.417234,267.887434 C84.417234,259.985085 90.8611965,253.555787 98.7809059,253.555787 C106.701278,253.555787 113.145241,259.985085 113.145241,267.887434 C113.145241,275.789783 106.701278,282.219081 98.7809059,282.219081 Z M254.355529,282.219081 C246.435157,282.219081 239.991194,275.789783 239.991194,267.887434 C239.991194,259.985085 246.435157,253.555787 254.355529,253.555787 C262.275901,253.555787 268.719864,259.985085 268.719864,267.887434 C268.719864,275.789783 262.275901,282.219081 254.355529,282.219081 Z M285.75725,169.953741 L71.3582657,182.524607 L62.5143913,84.2218249 L307.240439,84.2218249 L285.75725,169.953741 Z" id="Shape"></path>
        </g>
    </g>
</svg>